<svg width="1657" height="1657" xmlns="http://www.w3.org/2000/svg" xmlns:xlink="http://www.w3.org/1999/xlink" xml:space="preserve" overflow="hidden"><defs><clipPath id="clip0"><rect x="1438" y="226" width="1657" height="1657"/></clipPath></defs><g clip-path="url(#clip0)" transform="translate(-1438 -226)"><path d="M1438 1054.5C1438 596.932 1808.93 226 2266.5 226 2724.07 226 3095 596.932 3095 1054.5 3095 1512.07 2724.07 1883 2266.5 1883 1808.93 1883 1438 1512.07 1438 1054.5ZM2777.81 1430.2C2985.3 1147.82 2924.59 750.687 2642.2 543.192 2418.66 378.937 2114.34 378.937 1890.8 543.192ZM1755.19 678.797C1547.7 961.185 1608.41 1358.31 1890.8 1565.81 2114.34 1730.06 2418.66 1730.06 2642.2 1565.81Z" fill="#FFFFFF" fill-rule="evenodd"/><path d="M0 828.5C-1.05479e-13 370.932 370.932-1.05479e-13 828.5-2.10958e-13 1286.07-4.21916e-13 1657 370.932 1657 828.5 1657 1286.07 1286.07 1657 828.5 1657 370.932 1657-5.27396e-13 1286.07 0 828.5ZM1339.81 1204.2C1547.3 921.815 1486.59 524.687 1204.2 317.192 980.663 152.938 676.336 152.938 452.796 317.192ZM317.193 452.797C109.698 735.185 170.41 1132.31 452.797 1339.81 676.337 1504.06 980.664 1504.06 1204.2 1339.81Z" fill="#FFFFFF" fill-rule="evenodd" transform="matrix(-1 0 0 1 3095 226)"/></g></svg>