<svg width="2916" height="2917" xmlns="http://www.w3.org/2000/svg" xmlns:xlink="http://www.w3.org/1999/xlink" xml:space="preserve" overflow="hidden"><defs><clipPath id="clip0"><rect x="198" y="-87" width="2916" height="2917"/></clipPath></defs><g clip-path="url(#clip0)" transform="translate(-198 87)"><rect x="198" y="-87" width="2916" height="2917" fill="#262626"/><path d="M563 1371C563 767.353 1052.35 278 1656 278 2259.65 278 2749 767.353 2749 1371 2749 1974.65 2259.65 2464 1656 2464 1052.35 2464 563 1974.65 563 1371Z" fill="#767171" fill-rule="evenodd"/><path d="M838 1371.5C838 919.455 1204.45 553 1656.5 553 2108.55 553 2475 919.455 2475 1371.5 2475 1823.55 2108.55 2190 1656.5 2190 1204.45 2190 838 1823.55 838 1371.5Z" fill="#262626" fill-rule="evenodd"/><text fill="#767171" font-family="Malgun Gothic,Malgun Gothic_MSFontService,sans-serif" font-weight="700" font-size="330" transform="matrix(1 0 0 1 1263.68 1497)">Logo</text></g></svg>