<svg width="1637" height="1162" xmlns="http://www.w3.org/2000/svg" xmlns:xlink="http://www.w3.org/1999/xlink" xml:space="preserve" overflow="hidden"><defs><clipPath id="clip0"><rect x="3132" y="453" width="1637" height="1162"/></clipPath></defs><g clip-path="url(#clip0)" transform="translate(-3132 -453)"><path d="M3132 559.5C3132 500.682 3179.68 453 3238.5 453L4662.5 453C4721.32 453 4769 500.682 4769 559.5L4769 559.5C4769 618.318 4721.32 666 4662.5 666L3238.5 666C3179.68 666 3132 618.318 3132 559.5Z" fill="#ADB9CA" fill-rule="evenodd"/><path d="M3132 893C3132 833.906 3179.91 786 3239 786L4662 786C4721.09 786 4769 833.906 4769 893L4769 893C4769 952.094 4721.09 1000 4662 1000L3239 1000C3179.91 1000 3132 952.094 3132 893Z" fill="#ADB9CA" fill-rule="evenodd"/><path d="M3132 1508.5C3132 1449.68 3179.68 1402 3238.5 1402L4662.5 1402C4721.32 1402 4769 1449.68 4769 1508.5L4769 1508.5C4769 1567.32 4721.32 1615 4662.5 1615L3238.5 1615C3179.68 1615 3132 1567.32 3132 1508.5Z" fill="#ADB9CA" fill-rule="evenodd"/><path d="M3132 1201C3132 1141.91 3179.91 1094 3239 1094L4662 1094C4721.09 1094 4769 1141.91 4769 1201L4769 1201C4769 1260.09 4721.09 1308 4662 1308L3239 1308C3179.91 1308 3132 1260.09 3132 1201Z" fill="#ADB9CA" fill-rule="evenodd"/></g></svg>