<svg width="1639" height="1164" xmlns="http://www.w3.org/2000/svg" xmlns:xlink="http://www.w3.org/1999/xlink" xml:space="preserve" overflow="hidden"><defs><clipPath id="clip0"><rect x="2239" y="245" width="1639" height="1164"/></clipPath></defs><g clip-path="url(#clip0)" transform="translate(-2239 -245)"><path d="M2239 352.001C2239 292.906 2286.91 245 2346 245L3770 245C3829.1 245 3877 292.906 3877 352.001L3877 352.001C3877 411.096 3829.09 459.002 3770 459.002L2346 459C2286.91 459 2239 411.094 2239 351.999Z" fill="#FFFFFF" fill-rule="evenodd"/><path d="M2239 686.001C2239 626.906 2286.91 579 2346 579L3770 579C3829.1 579 3877 626.906 3877 686.001L3877 686.001C3877 745.096 3829.09 793.002 3770 793.002L2346 793C2286.91 793 2239 745.094 2239 685.999Z" fill="#FFFFFF" fill-rule="evenodd"/><path d="M2239 1301C2239 1241.91 2286.91 1194 2346 1194L3770 1194C3829.1 1194 3877 1241.91 3877 1301L3877 1301C3877 1360.1 3829.09 1408 3770 1408L2346 1408C2286.91 1408 2239 1360.09 2239 1301Z" fill="#FFFFFF" fill-rule="evenodd"/><path d="M2239 993.501C2239 934.682 2286.68 887 2345.5 887L3770.5 887C3829.32 887 3877 934.682 3877 993.501L3877 993.501C3877 1052.32 3829.32 1100 3770.5 1100L2345.5 1100C2286.68 1100 2239 1052.32 2239 993.499Z" fill="#FFFFFF" fill-rule="evenodd"/></g></svg>