<svg width="1637" height="1162" xmlns="http://www.w3.org/2000/svg" xmlns:xlink="http://www.w3.org/1999/xlink" xml:space="preserve" overflow="hidden"><defs><clipPath id="clip0"><rect x="1339" y="453" width="1637" height="1162"/></clipPath></defs><g clip-path="url(#clip0)" transform="translate(-1339 -453)"><path d="M1339 559.5C1339 500.682 1386.68 453 1445.5 453L2869.5 453C2928.32 453 2976 500.682 2976 559.5L2976 559.5C2976 618.318 2928.32 666 2869.5 666L1445.5 666C1386.68 666 1339 618.318 1339 559.5Z" fill="#ADB9CA" fill-rule="evenodd"/><path d="M1339 1034C1339 974.906 1386.91 927 1446 927L2869 927C2928.09 927 2976 974.906 2976 1034L2976 1034C2976 1093.09 2928.09 1141 2869 1141L1446 1141C1386.91 1141 1339 1093.09 1339 1034Z" fill="#ADB9CA" fill-rule="evenodd"/><path d="M1339 1508.5C1339 1449.68 1386.68 1402 1445.5 1402L2869.5 1402C2928.32 1402 2976 1449.68 2976 1508.5L2976 1508.5C2976 1567.32 2928.32 1615 2869.5 1615L1445.5 1615C1386.68 1615 1339 1567.32 1339 1508.5Z" fill="#ADB9CA" fill-rule="evenodd"/></g></svg>