<svg width="1639" height="1164" xmlns="http://www.w3.org/2000/svg" xmlns:xlink="http://www.w3.org/1999/xlink" xml:space="preserve" overflow="hidden"><defs><clipPath id="clip0"><rect x="446" y="245" width="1639" height="1164"/></clipPath></defs><g clip-path="url(#clip0)" transform="translate(-446 -245)"><path d="M446 352.001C446 292.906 493.905 245 553 245L1977 245C2036.1 245 2084 292.906 2084 352.001L2084 352.001C2084 411.096 2036.09 459.002 1977 459.002L553 459C493.905 459 446 411.094 446 351.999Z" fill="#FFFFFF" fill-rule="evenodd"/><path d="M446 826.501C446 767.682 493.682 720 552.5 720L1977.5 720C2036.32 720 2084 767.682 2084 826.501L2084 826.501C2084 885.32 2036.32 933.002 1977.5 933.002L552.5 933C493.682 933 446 885.318 446 826.499Z" fill="#FFFFFF" fill-rule="evenodd"/><path d="M446 1301C446 1241.91 493.905 1194 553 1194L1977 1194C2036.1 1194 2084 1241.91 2084 1301L2084 1301C2084 1360.1 2036.09 1408 1977 1408L553 1408C493.905 1408 446 1360.09 446 1301Z" fill="#FFFFFF" fill-rule="evenodd"/></g></svg>