<svg width="1472" height="1315" xmlns="http://www.w3.org/2000/svg" xmlns:xlink="http://www.w3.org/1999/xlink" xml:space="preserve" overflow="hidden"><defs><clipPath id="clip0"><rect x="1037" y="580" width="1472" height="1315"/></clipPath></defs><g clip-path="url(#clip0)" transform="translate(-1037 -580)"><path d="M1039.5 678.261C1039.5 625.374 1082.37 582.5 1135.26 582.5L2398.74 582.5C2451.63 582.5 2494.5 625.374 2494.5 678.261L2494.5 1796.74C2494.5 1849.63 2451.63 1892.5 2398.74 1892.5L1135.26 1892.5C1082.37 1892.5 1039.5 1849.63 1039.5 1796.74Z" stroke="#FFFFFF" stroke-width="4.58333" stroke-miterlimit="8" fill="#595959" fill-rule="evenodd"/><path d="M1040 798 2494.41 798" stroke="#FFFFFF" stroke-width="27.5" stroke-miterlimit="8" fill="none" fill-rule="evenodd"/><path d="M1131 684C1131 650.863 1157.86 624 1191 624 1224.14 624 1251 650.863 1251 684 1251 717.137 1224.14 744 1191 744 1157.86 744 1131 717.137 1131 684Z" fill="#FFFFFF" fill-rule="evenodd"/><path d="M1343 684C1343 650.863 1369.64 624 1402.5 624 1435.36 624 1462 650.863 1462 684 1462 717.137 1435.36 744 1402.5 744 1369.64 744 1343 717.137 1343 684Z" fill="#FFFFFF" fill-rule="evenodd"/><path d="M1549 684C1549 650.863 1575.86 624 1609 624 1642.14 624 1669 650.863 1669 684 1669 717.137 1642.14 744 1609 744 1575.86 744 1549 717.137 1549 684Z" fill="#FFFFFF" fill-rule="evenodd"/><path d="M1131 1012 1183.5 960 1236 960 1131 1064Z" fill="#FFFFFF" fill-rule="evenodd"/><path d="M0 52.5001 52.5001 0 105 0 0 105Z" fill="#FFFFFF" fill-rule="evenodd" transform="matrix(1 0 0 -1 1131 960)"/></g></svg>