<svg width="4405" height="2480" xmlns="http://www.w3.org/2000/svg" xmlns:xlink="http://www.w3.org/1999/xlink" xml:space="preserve" overflow="hidden"><defs><filter id="fx0" x="-10%" y="-10%" width="120%" height="120%" filterUnits="userSpaceOnUse" primitiveUnits="userSpaceOnUse"><feComponentTransfer color-interpolation-filters="sRGB"><feFuncR type="discrete" tableValues="0 0"/><feFuncG type="discrete" tableValues="0 0"/><feFuncB type="discrete" tableValues="0 0"/><feFuncA type="linear" slope="0.321569" intercept="0"/></feComponentTransfer><feGaussianBlur stdDeviation="4.92259 4.94826"/></filter><clipPath id="clip1"><rect x="-2" y="-2" width="4405" height="2480"/></clipPath><clipPath id="clip2"><rect x="-5.50201" y="-5.53076" width="1363" height="102.067"/></clipPath><clipPath id="clip3"><rect x="0" y="0" width="1352" height="90"/></clipPath><linearGradient x1="463.731" y1="275.43" x2="463.731" y2="370.835" gradientUnits="userSpaceOnUse" spreadMethod="reflect" id="fill4"><stop offset="0" stop-color="#7F7F7F" stop-opacity="0.45098"/><stop offset="0.5" stop-color="#F2F2F2" stop-opacity="0.521569"/><stop offset="1" stop-color="#7F7F7F" stop-opacity="0.470588"/></linearGradient><linearGradient x1="3074.36" y1="1826" x2="3074.36" y2="2458.5" gradientUnits="userSpaceOnUse" spreadMethod="reflect" id="fill5"><stop offset="0" stop-color="#7F7F7F" stop-opacity="0.45098"/><stop offset="0.5" stop-color="#F2F2F2" stop-opacity="0.521569"/><stop offset="1" stop-color="#7F7F7F" stop-opacity="0.470588"/></linearGradient></defs><g clip-path="url(#clip1)" transform="translate(2 2)"><rect x="0.499836" y="0.499836" width="4400" height="2475" stroke="#2F528F" stroke-width="4.58333" stroke-miterlimit="8" fill="none"/><g clip-path="url(#clip2)" filter="url(#fx0)" transform="matrix(1.99926 0 0 1.98889 1595 2177)"><g clip-path="url(#clip3)" transform="translate(1.13687e-13 0)"><path d="M606.598 319.409C604.372 319.409 602.412 320.289 600.717 322.048 599.023 323.808 597.968 326.163 597.554 329.112L614.594 329.112C614.594 322.643 611.928 319.409 606.598 319.409ZM486.38 319.409C484.155 319.409 482.194 320.289 480.5 322.048 478.805 323.808 477.75 326.163 477.336 329.112L494.376 329.112C494.376 322.643 491.71 319.409 486.38 319.409ZM330.263 319.409C328.037 319.409 326.077 320.289 324.382 322.048 322.687 323.808 321.633 326.163 321.219 329.112L338.258 329.112C338.258 322.643 335.593 319.409 330.263 319.409ZM542.109 312.772 553.754 312.772 561.788 339.243C562.539 341.753 563.004 344.004 563.185 345.997L563.38 345.997C563.587 344.056 564.052 341.869 564.777 339.437L573.044 312.772 584.378 312.772 568.852 353.565 556.859 353.565ZM654.727 312.073C656.202 312.073 657.314 312.254 658.065 312.616L658.065 322.747C656.642 321.893 654.895 321.466 652.825 321.466 650.108 321.466 647.934 322.572 646.304 324.785 644.674 326.997 643.859 329.966 643.859 333.693L643.859 353.565 633.03 353.565 633.03 312.772 643.859 312.772 643.859 320.612 643.975 320.612C645.968 314.919 649.552 312.073 654.727 312.073ZM534.509 312.073C535.984 312.073 537.097 312.254 537.847 312.616L537.847 322.747C536.424 321.893 534.677 321.466 532.607 321.466 529.89 321.466 527.716 322.572 526.086 324.785 524.456 326.997 523.641 329.966 523.641 333.693L523.641 353.565 512.812 353.565 512.812 312.772 523.641 312.772 523.641 320.612 523.757 320.612C525.75 314.919 529.334 312.073 534.509 312.073ZM606.714 311.801C612.407 311.801 616.845 313.548 620.028 317.041 623.21 320.535 624.802 325.335 624.802 331.441L624.802 336.215 597.554 336.215C597.994 343.15 601.927 346.618 609.354 346.618 613.882 346.618 617.919 345.427 621.464 343.047L621.464 351.275C617.686 353.475 612.834 354.575 606.908 354.575 600.569 354.575 595.633 352.737 592.101 349.063 588.569 345.389 586.803 340.252 586.803 333.654 586.803 327.185 588.698 321.925 592.489 317.876 596.28 313.826 601.022 311.801 606.714 311.801ZM486.496 311.801C492.189 311.801 496.627 313.548 499.81 317.041 502.992 320.535 504.584 325.335 504.584 331.441L504.584 336.215 477.336 336.215C477.776 343.15 481.709 346.618 489.136 346.618 493.664 346.618 497.701 345.427 501.246 343.047L501.246 351.275C497.468 353.475 492.616 354.575 486.69 354.575 480.351 354.575 475.415 352.737 471.883 349.063 468.351 345.389 466.585 340.252 466.585 333.654 466.585 327.185 468.48 321.925 472.271 317.876 476.062 313.826 480.804 311.801 486.496 311.801ZM372.57 311.801C376.089 311.801 379.608 312.358 383.127 313.47L383.127 322.281C379.944 320.392 376.464 319.448 372.686 319.448 370.694 319.448 369.089 319.823 367.873 320.573 366.657 321.324 366.049 322.32 366.049 323.562 366.049 325.606 367.744 327.224 371.133 328.414 374.989 329.811 377.822 330.982 379.634 331.927 381.445 332.871 382.855 334.158 383.865 335.789 384.874 337.419 385.378 339.334 385.378 341.533 385.378 345.673 383.729 348.882 380.429 351.159 377.13 353.436 372.777 354.575 367.368 354.575 362.814 354.575 358.803 353.85 355.336 352.401L355.336 343.086C359.373 345.621 363.358 346.889 367.291 346.889 372.363 346.889 374.898 345.453 374.898 342.581 374.898 340.589 372.893 338.907 368.882 337.535 363.034 335.569 359.321 333.634 357.742 331.732 356.164 329.831 355.375 327.392 355.375 324.416 355.375 320.483 356.979 317.397 360.188 315.159 363.396 312.92 367.524 311.801 372.57 311.801ZM330.379 311.801C336.072 311.801 340.51 313.548 343.692 317.041 346.875 320.535 348.467 325.335 348.467 331.441L348.467 336.215 321.219 336.215C321.659 343.15 325.592 346.618 333.018 346.618 337.547 346.618 341.583 345.427 345.129 343.047L345.129 351.275C341.351 353.475 336.499 354.575 330.573 354.575 324.233 354.575 319.298 352.737 315.766 349.063 312.233 345.389 310.467 340.252 310.467 333.654 310.467 327.185 312.363 321.925 316.154 317.876 319.945 313.826 324.686 311.801 330.379 311.801ZM406.855 300.506 406.855 312.772 416.287 312.772 416.287 321 406.855 321 406.855 339.359C406.855 343.862 408.628 346.113 412.173 346.113 413.648 346.113 415.019 345.699 416.287 344.871L416.287 353.138C414.45 354.07 411.888 354.536 408.602 354.536 400.244 354.536 396.065 350.111 396.065 341.261L396.065 321 389.311 321 389.311 312.772 396.065 312.772 396.065 303.65ZM270.141 296.431 313.884 296.431 313.884 305.63 297.543 305.63 297.543 353.565 286.443 353.565 286.443 305.63 270.141 305.63ZM443.958 295.499C449.754 295.499 454.321 296.224 457.659 297.673L457.659 308.269C453.959 305.733 449.495 304.465 444.268 304.465 441.189 304.465 438.698 305.048 436.796 306.212 434.894 307.376 433.943 308.981 433.943 311.025 433.943 312.655 434.603 314.143 435.923 315.489 437.243 316.834 440.335 318.581 445.2 320.729 450.789 323.161 454.67 325.716 456.844 328.394 459.018 331.073 460.104 334.275 460.104 338.001 460.104 343.383 458.183 347.491 454.34 350.324 450.498 353.158 445.109 354.575 438.174 354.575 431.731 354.575 426.491 353.501 422.454 351.353L422.454 340.019C426.983 343.771 432.171 345.647 438.019 345.647 441.538 345.647 444.165 345.033 445.898 343.804 447.632 342.575 448.499 340.964 448.499 338.971 448.499 337.238 447.774 335.646 446.325 334.197 444.876 332.748 441.37 330.833 435.807 328.453 431.071 326.331 427.636 323.944 425.501 321.291 423.367 318.639 422.299 315.527 422.299 311.957 422.299 306.807 424.292 302.777 428.277 299.866 432.262 296.955 437.489 295.499 443.958 295.499Z" fill="url(#fill4)" fill-rule="evenodd" transform="matrix(3.31604 0 1.3176 1 -1270.72 -279.927)"/></g></g><path d="M4021.52 2117.56C4006.77 2117.56 3993.77 2123.4 3982.53 2135.06 3971.3 2146.73 3964.31 2162.34 3961.56 2181.89L4074.53 2181.89C4074.53 2139.01 4056.86 2117.56 4021.52 2117.56ZM3224.52 2117.56C3209.77 2117.56 3196.77 2123.4 3185.53 2135.06 3174.3 2146.73 3167.31 2162.34 3164.56 2181.89L3277.53 2181.89C3277.53 2139.01 3259.86 2117.56 3224.52 2117.56ZM2189.52 2117.56C2174.77 2117.56 2161.77 2123.4 2150.53 2135.06 2139.3 2146.73 2132.31 2162.34 2129.56 2181.89L2242.53 2181.89C2242.53 2139.01 2224.86 2117.56 2189.52 2117.56ZM3593.98 2073.56 3671.18 2073.56 3724.45 2249.06C3729.42 2265.7 3732.51 2280.62 3733.71 2293.83L3735 2293.83C3736.37 2280.96 3739.46 2266.47 3744.26 2250.34L3799.07 2073.56 3874.21 2073.56 3771.28 2344.01 3691.77 2344.01ZM4340.6 2068.93C4350.38 2068.93 4357.75 2070.13 4362.73 2072.53L4362.73 2139.69C4353.29 2134.03 4341.71 2131.2 4327.99 2131.2 4309.98 2131.2 4295.56 2138.53 4284.76 2153.2 4273.95 2167.87 4268.55 2187.56 4268.55 2212.26L4268.55 2344.01 4196.75 2344.01 4196.75 2073.56 4268.55 2073.56 4268.55 2125.54 4269.32 2125.54C4282.53 2087.8 4306.29 2068.93 4340.6 2068.93ZM3543.6 2068.93C3553.38 2068.93 3560.75 2070.13 3565.73 2072.53L3565.73 2139.69C3556.29 2134.03 3544.71 2131.2 3530.99 2131.2 3512.98 2131.2 3498.57 2138.53 3487.76 2153.2 3476.95 2167.87 3471.55 2187.56 3471.55 2212.26L3471.55 2344.01 3399.75 2344.01 3399.75 2073.56 3471.55 2073.56 3471.55 2125.54 3472.32 2125.54C3485.53 2087.8 3509.29 2068.93 3543.6 2068.93ZM4022.29 2067.13C4060.03 2067.13 4089.45 2078.71 4110.55 2101.87 4131.65 2125.03 4142.2 2156.85 4142.2 2197.33L4142.2 2228.98 3961.56 2228.98C3964.48 2274.96 3990.55 2297.95 4039.79 2297.95 4069.81 2297.95 4096.57 2290.06 4120.07 2274.27L4120.07 2328.83C4095.03 2343.41 4062.86 2350.7 4023.58 2350.7 3981.55 2350.7 3948.82 2338.52 3925.41 2314.16 3901.99 2289.8 3890.28 2255.75 3890.28 2212 3890.28 2169.11 3902.85 2134.25 3927.98 2107.4 3953.11 2080.55 3984.55 2067.13 4022.29 2067.13ZM3225.29 2067.13C3263.03 2067.13 3292.45 2078.71 3313.55 2101.87 3334.65 2125.03 3345.2 2156.85 3345.2 2197.33L3345.2 2228.98 3164.56 2228.98C3167.48 2274.96 3193.55 2297.95 3242.79 2297.95 3272.81 2297.95 3299.57 2290.06 3323.07 2274.27L3323.07 2328.83C3298.03 2343.41 3265.86 2350.7 3226.58 2350.7 3184.55 2350.7 3151.83 2338.52 3128.41 2314.16 3104.99 2289.8 3093.28 2255.75 3093.28 2212 3093.28 2169.11 3105.85 2134.25 3130.98 2107.4 3156.11 2080.55 3187.55 2067.13 3225.29 2067.13ZM2470 2067.13C2493.33 2067.13 2516.66 2070.82 2539.99 2078.19L2539.99 2136.6C2518.89 2124.08 2495.82 2117.82 2470.77 2117.82 2457.56 2117.82 2446.92 2120.31 2438.86 2125.28 2430.8 2130.26 2426.77 2136.86 2426.77 2145.1 2426.77 2158.65 2438 2169.37 2460.48 2177.26 2486.04 2186.53 2504.82 2194.29 2516.83 2200.55 2528.84 2206.81 2538.19 2215.35 2544.88 2226.15 2551.57 2236.96 2554.92 2249.66 2554.92 2264.24 2554.92 2291.69 2543.98 2312.96 2522.11 2328.05 2500.23 2343.15 2471.37 2350.7 2435.52 2350.7 2405.32 2350.7 2378.73 2345.9 2355.75 2336.29L2355.75 2274.53C2382.51 2291.34 2408.93 2299.75 2435 2299.75 2468.63 2299.75 2485.44 2290.23 2485.44 2271.19 2485.44 2257.98 2472.14 2246.83 2445.55 2237.73 2406.78 2224.7 2382.17 2211.87 2371.7 2199.26 2361.24 2186.65 2356 2170.49 2356 2150.76 2356 2124.68 2366.64 2104.22 2387.91 2089.39 2409.18 2074.55 2436.55 2067.13 2470 2067.13ZM2190.29 2067.13C2228.03 2067.13 2257.45 2078.71 2278.55 2101.87 2299.65 2125.03 2310.2 2156.85 2310.2 2197.33L2310.2 2228.98 2129.56 2228.98C2132.48 2274.96 2158.55 2297.95 2207.79 2297.95 2237.81 2297.95 2264.57 2290.06 2288.07 2274.27L2288.07 2328.83C2263.03 2343.41 2230.86 2350.7 2191.58 2350.7 2149.55 2350.7 2116.83 2338.52 2093.41 2314.16 2069.99 2289.8 2058.28 2255.75 2058.28 2212 2058.28 2169.11 2070.85 2134.25 2095.98 2107.4 2121.11 2080.55 2152.55 2067.13 2190.29 2067.13ZM2697.3 1992.25 2697.3 2073.56 2759.83 2073.56 2759.83 2128.11 2697.3 2128.11 2697.3 2249.83C2697.3 2279.68 2709.05 2294.6 2732.55 2294.6 2742.33 2294.6 2751.43 2291.86 2759.83 2286.37L2759.83 2341.18C2747.65 2347.35 2730.67 2350.44 2708.88 2350.44 2653.47 2350.44 2625.77 2321.11 2625.77 2262.44L2625.77 2128.11 2580.99 2128.11 2580.99 2073.56 2625.77 2073.56 2625.77 2013.09ZM1790.93 1965.23 2080.94 1965.23 2080.94 2026.21 1972.6 2026.21 1972.6 2344.01 1899.01 2344.01 1899.01 2026.21 1790.93 2026.21ZM2943.27 1959.05C2981.7 1959.05 3011.98 1963.85 3034.11 1973.46L3034.11 2043.71C3009.58 2026.9 2979.99 2018.49 2945.33 2018.49 2924.92 2018.49 2908.41 2022.35 2895.8 2030.07 2883.19 2037.79 2876.88 2048.43 2876.88 2061.98 2876.88 2072.79 2881.26 2082.65 2890.01 2091.57 2898.76 2100.49 2919.26 2112.07 2951.51 2126.31 2988.56 2142.44 3014.3 2159.38 3028.71 2177.13 3043.12 2194.89 3050.32 2216.12 3050.32 2240.82 3050.32 2276.5 3037.58 2303.74 3012.11 2322.52 2986.63 2341.31 2950.91 2350.7 2904.93 2350.7 2862.22 2350.7 2827.48 2343.58 2800.72 2329.34L2800.72 2254.2C2830.74 2279.08 2865.13 2291.51 2903.9 2291.51 2927.23 2291.51 2944.65 2287.44 2956.14 2279.29 2967.63 2271.14 2973.38 2260.46 2973.38 2247.25 2973.38 2235.76 2968.58 2225.21 2958.97 2215.6 2949.36 2206 2926.12 2193.3 2889.24 2177.52 2857.84 2163.45 2835.07 2147.63 2820.92 2130.04 2806.76 2112.46 2799.69 2091.83 2799.69 2068.16 2799.69 2034.02 2812.9 2007.3 2839.32 1988 2865.73 1968.7 2900.39 1959.05 2943.27 1959.05Z" fill="url(#fill5)" fill-rule="evenodd"/><text fill="#000000" fill-opacity="0" font-family="Arial,Arial_MSFontService,sans-serif" font-size="391.647" x="1790.93" y="2301.74">TestServer</text></g></svg>