<svg width="1109" height="1110" xmlns="http://www.w3.org/2000/svg" xmlns:xlink="http://www.w3.org/1999/xlink" xml:space="preserve" overflow="hidden"><defs><clipPath id="clip0"><rect x="1554" y="349" width="1109" height="1110"/></clipPath></defs><g clip-path="url(#clip0)" transform="translate(-1554 -349)"><path d="M1554 904C1554 597.482 1802.26 349 2108.5 349 2414.74 349 2663 597.482 2663 904 2663 1210.52 2414.74 1459 2108.5 1459 1802.26 1459 1554 1210.52 1554 904Z" fill="#7F7F7F" fill-rule="evenodd"/><path d="M1769.5 592.834C1769.5 578.29 1781.29 566.5 1795.83 566.5L2103.17 566.5C2117.71 566.5 2129.5 578.29 2129.5 592.834L2129.5 698.166C2129.5 712.71 2117.71 724.5 2103.17 724.5L1795.83 724.5C1781.29 724.5 1769.5 712.71 1769.5 698.166Z" stroke="#F2F2F2" stroke-width="4.58333" stroke-miterlimit="8" fill="#FFFFFF" fill-rule="evenodd"/><path d="M2129.5 837.834C2129.5 823.29 2141.29 811.5 2155.83 811.5L2463.17 811.5C2477.71 811.5 2489.5 823.29 2489.5 837.834L2489.5 943.166C2489.5 957.71 2477.71 969.5 2463.17 969.5L2155.83 969.5C2141.29 969.5 2129.5 957.71 2129.5 943.166Z" stroke="#F2F2F2" stroke-width="4.58333" stroke-miterlimit="8" fill="#FFFFFF" fill-rule="evenodd"/><path d="M2129.5 1110.83C2129.5 1096.29 2141.29 1084.5 2155.83 1084.5L2463.17 1084.5C2477.71 1084.5 2489.5 1096.29 2489.5 1110.83L2489.5 1216.17C2489.5 1230.71 2477.71 1242.5 2463.17 1242.5L2155.83 1242.5C2141.29 1242.5 2129.5 1230.71 2129.5 1216.17Z" stroke="#F2F2F2" stroke-width="4.58333" stroke-miterlimit="8" fill="#FFFFFF" fill-rule="evenodd"/><path d="M0 0 166.146 0 166.146 179.896" stroke="#F2F2F2" stroke-width="20.625" stroke-miterlimit="8" fill="none" fill-rule="evenodd" transform="matrix(1.83697e-16 1 1 -1.83697e-16 1949.5 724.5)"/><path d="M0 0 438.854 0 438.854 179.896" stroke="#F2F2F2" stroke-width="20.625" stroke-miterlimit="8" fill="none" fill-rule="evenodd" transform="matrix(1.83697e-16 1 1 -1.83697e-16 1949.5 724.5)"/></g></svg>